<mxfile host="Electron" modified="2023-08-16T20:36:41.312Z" agent="Mozilla/5.0 (Windows NT 10.0; Win64; x64) AppleWebKit/537.36 (KHTML, like Gecko) draw.io/21.6.8 Chrome/114.0.5735.289 Electron/25.5.0 Safari/537.36" etag="3ziY_xPylfB_M7zeMg-t" version="21.6.8" type="device">
  <diagram name="PÃ¡gina-1" id="DllcxVhq_X8KNGi0mlrW">
    <mxGraphModel dx="1050" dy="629" grid="1" gridSize="10" guides="1" tooltips="1" connect="1" arrows="1" fold="1" page="1" pageScale="1" pageWidth="827" pageHeight="1169" math="0" shadow="0">
      <root>
        <mxCell id="0" />
        <mxCell id="1" parent="0" />
        <mxCell id="ClqyVM0LQAfgMowNN57f-1" value="&lt;font style=&quot;font-size: 18px;&quot;&gt;&lt;u&gt;:Sistema&lt;/u&gt;&lt;/font&gt;" style="rounded=0;whiteSpace=wrap;html=1;" parent="1" vertex="1">
          <mxGeometry x="610" y="560" width="120" height="60" as="geometry" />
        </mxCell>
        <mxCell id="ClqyVM0LQAfgMowNN57f-2" value="" style="endArrow=none;html=1;rounded=0;entryX=0;entryY=0.5;entryDx=0;entryDy=0;" parent="1" edge="1">
          <mxGeometry width="50" height="50" relative="1" as="geometry">
            <mxPoint x="230" y="590" as="sourcePoint" />
            <mxPoint x="610" y="591" as="targetPoint" />
          </mxGeometry>
        </mxCell>
        <mxCell id="ClqyVM0LQAfgMowNN57f-3" value="&lt;font style=&quot;font-size: 14px;&quot;&gt;altaActividad(prov : String, dep : String, data : DtActTur)&lt;/font&gt;" style="text;html=1;strokeColor=none;fillColor=none;align=center;verticalAlign=middle;whiteSpace=wrap;rounded=0;" parent="1" vertex="1">
          <mxGeometry x="240" y="530" width="360" height="30" as="geometry" />
        </mxCell>
        <mxCell id="ClqyVM0LQAfgMowNN57f-4" value="" style="endArrow=classic;html=1;rounded=0;" parent="1" edge="1">
          <mxGeometry width="50" height="50" relative="1" as="geometry">
            <mxPoint x="410" y="571" as="sourcePoint" />
            <mxPoint x="500" y="571" as="targetPoint" />
          </mxGeometry>
        </mxCell>
        <mxCell id="ClqyVM0LQAfgMowNN57f-5" value="" style="endArrow=none;html=1;rounded=0;entryX=1;entryY=0.5;entryDx=0;entryDy=0;" parent="1" target="ClqyVM0LQAfgMowNN57f-1" edge="1">
          <mxGeometry width="50" height="50" relative="1" as="geometry">
            <mxPoint x="1160" y="590" as="sourcePoint" />
            <mxPoint x="680" y="620" as="targetPoint" />
          </mxGeometry>
        </mxCell>
        <mxCell id="ClqyVM0LQAfgMowNN57f-6" value="&lt;font style=&quot;font-size: 18px;&quot;&gt;&lt;u&gt;u:Usuario&lt;/u&gt;&lt;/font&gt;" style="rounded=0;whiteSpace=wrap;html=1;" parent="1" vertex="1">
          <mxGeometry x="1160" y="660" width="120" height="60" as="geometry" />
        </mxCell>
        <mxCell id="ClqyVM0LQAfgMowNN57f-7" value="&lt;font style=&quot;font-size: 14px;&quot;&gt;1: u := find(prov)&lt;br&gt;&lt;/font&gt;" style="text;html=1;strokeColor=none;fillColor=none;align=center;verticalAlign=middle;whiteSpace=wrap;rounded=0;" parent="1" vertex="1">
          <mxGeometry x="851" y="520" width="190" height="30" as="geometry" />
        </mxCell>
        <mxCell id="ClqyVM0LQAfgMowNN57f-8" value="" style="endArrow=classic;html=1;rounded=0;" parent="1" edge="1">
          <mxGeometry width="50" height="50" relative="1" as="geometry">
            <mxPoint x="900" y="560" as="sourcePoint" />
            <mxPoint x="990" y="560" as="targetPoint" />
          </mxGeometry>
        </mxCell>
        <mxCell id="ClqyVM0LQAfgMowNN57f-9" value="" style="endArrow=none;html=1;rounded=0;entryX=0.75;entryY=1;entryDx=0;entryDy=0;exitX=0;exitY=0.5;exitDx=0;exitDy=0;" parent="1" source="ClqyVM0LQAfgMowNN57f-6" target="ClqyVM0LQAfgMowNN57f-1" edge="1">
          <mxGeometry width="50" height="50" relative="1" as="geometry">
            <mxPoint x="1170" y="790" as="sourcePoint" />
            <mxPoint x="880" y="640" as="targetPoint" />
            <Array as="points">
              <mxPoint x="700" y="690" />
            </Array>
          </mxGeometry>
        </mxCell>
        <mxCell id="ClqyVM0LQAfgMowNN57f-10" value="" style="rounded=0;whiteSpace=wrap;html=1;" parent="1" vertex="1">
          <mxGeometry x="1170" y="550" width="120" height="60" as="geometry" />
        </mxCell>
        <mxCell id="ClqyVM0LQAfgMowNN57f-11" value="&lt;font style=&quot;font-size: 18px;&quot;&gt;&lt;u&gt;:Usuario&lt;/u&gt;&lt;/font&gt;" style="rounded=0;whiteSpace=wrap;html=1;" parent="1" vertex="1">
          <mxGeometry x="1160" y="560" width="120" height="60" as="geometry" />
        </mxCell>
        <mxCell id="ClqyVM0LQAfgMowNN57f-13" value="" style="endArrow=classic;html=1;rounded=0;" parent="1" edge="1">
          <mxGeometry width="50" height="50" relative="1" as="geometry">
            <mxPoint x="875" y="670" as="sourcePoint" />
            <mxPoint x="965" y="670" as="targetPoint" />
          </mxGeometry>
        </mxCell>
        <mxCell id="ClqyVM0LQAfgMowNN57f-14" value="" style="endArrow=none;html=1;rounded=0;entryX=0.5;entryY=1;entryDx=0;entryDy=0;" parent="1" target="ClqyVM0LQAfgMowNN57f-1" edge="1">
          <mxGeometry width="50" height="50" relative="1" as="geometry">
            <mxPoint x="1160" y="780" as="sourcePoint" />
            <mxPoint x="910" y="640" as="targetPoint" />
            <Array as="points">
              <mxPoint x="670" y="780" />
            </Array>
          </mxGeometry>
        </mxCell>
        <mxCell id="ClqyVM0LQAfgMowNN57f-15" value="" style="rounded=0;whiteSpace=wrap;html=1;" parent="1" vertex="1">
          <mxGeometry x="1170" y="740" width="150" height="60" as="geometry" />
        </mxCell>
        <mxCell id="ClqyVM0LQAfgMowNN57f-16" value="&lt;span style=&quot;font-size: 18px;&quot;&gt;&lt;u&gt;d:Departamento&lt;/u&gt;&lt;/span&gt;" style="rounded=0;whiteSpace=wrap;html=1;" parent="1" vertex="1">
          <mxGeometry x="1160" y="750" width="150" height="60" as="geometry" />
        </mxCell>
        <mxCell id="ClqyVM0LQAfgMowNN57f-17" value="&lt;font style=&quot;font-size: 14px;&quot;&gt;2: d := find(dep)&lt;/font&gt;" style="text;html=1;strokeColor=none;fillColor=none;align=center;verticalAlign=middle;whiteSpace=wrap;rounded=0;" parent="1" vertex="1">
          <mxGeometry x="830" y="730" width="190" height="30" as="geometry" />
        </mxCell>
        <mxCell id="ClqyVM0LQAfgMowNN57f-18" value="" style="endArrow=classic;html=1;rounded=0;" parent="1" edge="1">
          <mxGeometry width="50" height="50" relative="1" as="geometry">
            <mxPoint x="880" y="770" as="sourcePoint" />
            <mxPoint x="970" y="770" as="targetPoint" />
          </mxGeometry>
        </mxCell>
        <mxCell id="ClqyVM0LQAfgMowNN57f-19" value="&lt;span style=&quot;font-size: 18px;&quot;&gt;&lt;u&gt;d:Departamento&lt;/u&gt;&lt;/span&gt;" style="rounded=0;whiteSpace=wrap;html=1;" parent="1" vertex="1">
          <mxGeometry x="1160" y="845" width="150" height="60" as="geometry" />
        </mxCell>
        <mxCell id="ClqyVM0LQAfgMowNN57f-20" value="" style="endArrow=none;html=1;rounded=0;entryX=0.25;entryY=1;entryDx=0;entryDy=0;exitX=0;exitY=0.5;exitDx=0;exitDy=0;" parent="1" source="ClqyVM0LQAfgMowNN57f-19" target="ClqyVM0LQAfgMowNN57f-1" edge="1">
          <mxGeometry width="50" height="50" relative="1" as="geometry">
            <mxPoint x="860" y="690" as="sourcePoint" />
            <mxPoint x="910" y="640" as="targetPoint" />
            <Array as="points">
              <mxPoint x="640" y="875" />
            </Array>
          </mxGeometry>
        </mxCell>
        <mxCell id="ClqyVM0LQAfgMowNN57f-22" value="" style="endArrow=classic;html=1;rounded=0;" parent="1" edge="1">
          <mxGeometry width="50" height="50" relative="1" as="geometry">
            <mxPoint x="865" y="860" as="sourcePoint" />
            <mxPoint x="955" y="860" as="targetPoint" />
          </mxGeometry>
        </mxCell>
        <mxCell id="WDDI3389Du1jGe91_yvF-3" value="&lt;font style=&quot;font-size: 14px;&quot;&gt;4: linkearAct(act)&lt;br&gt;&lt;/font&gt;" style="text;html=1;strokeColor=none;fillColor=none;align=center;verticalAlign=middle;whiteSpace=wrap;rounded=0;" vertex="1" parent="1">
          <mxGeometry x="827" y="630" width="190" height="30" as="geometry" />
        </mxCell>
        <mxCell id="WDDI3389Du1jGe91_yvF-4" value="&lt;font style=&quot;font-size: 14px;&quot;&gt;3: act := crearAct(data) : ActividadTuristica&lt;br&gt;&lt;/font&gt;" style="text;html=1;strokeColor=none;fillColor=none;align=center;verticalAlign=middle;whiteSpace=wrap;rounded=0;" vertex="1" parent="1">
          <mxGeometry x="760" y="820" width="292" height="30" as="geometry" />
        </mxCell>
        <mxCell id="WDDI3389Du1jGe91_yvF-5" value="" style="endArrow=none;html=1;rounded=0;entryX=1;entryY=0.5;entryDx=0;entryDy=0;" edge="1" parent="1" target="ClqyVM0LQAfgMowNN57f-6">
          <mxGeometry width="50" height="50" relative="1" as="geometry">
            <mxPoint x="1460" y="690" as="sourcePoint" />
            <mxPoint x="1150" y="670" as="targetPoint" />
          </mxGeometry>
        </mxCell>
        <mxCell id="WDDI3389Du1jGe91_yvF-6" value="" style="rounded=0;whiteSpace=wrap;html=1;" vertex="1" parent="1">
          <mxGeometry x="1470" y="650" width="180" height="60" as="geometry" />
        </mxCell>
        <mxCell id="WDDI3389Du1jGe91_yvF-7" value="&lt;font style=&quot;font-size: 18px;&quot;&gt;&lt;u&gt;ActividadTuristica&lt;/u&gt;&lt;/font&gt;" style="rounded=0;whiteSpace=wrap;html=1;" vertex="1" parent="1">
          <mxGeometry x="1460" y="660" width="180" height="60" as="geometry" />
        </mxCell>
        <mxCell id="WDDI3389Du1jGe91_yvF-8" value="&lt;font style=&quot;font-size: 14px;&quot;&gt;4.1: add(act)&lt;br&gt;&lt;/font&gt;" style="text;html=1;strokeColor=none;fillColor=none;align=center;verticalAlign=middle;whiteSpace=wrap;rounded=0;" vertex="1" parent="1">
          <mxGeometry x="1270" y="650" width="190" height="30" as="geometry" />
        </mxCell>
        <mxCell id="WDDI3389Du1jGe91_yvF-9" value="&lt;font style=&quot;font-size: 18px;&quot;&gt;&lt;u&gt;ActividadTuristica&lt;/u&gt;&lt;/font&gt;" style="rounded=0;whiteSpace=wrap;html=1;" vertex="1" parent="1">
          <mxGeometry x="1490" y="845" width="180" height="60" as="geometry" />
        </mxCell>
        <mxCell id="WDDI3389Du1jGe91_yvF-10" value="" style="endArrow=none;html=1;rounded=0;entryX=1;entryY=0.5;entryDx=0;entryDy=0;exitX=0;exitY=0.5;exitDx=0;exitDy=0;" edge="1" parent="1" source="WDDI3389Du1jGe91_yvF-9" target="ClqyVM0LQAfgMowNN57f-19">
          <mxGeometry width="50" height="50" relative="1" as="geometry">
            <mxPoint x="1190" y="920" as="sourcePoint" />
            <mxPoint x="1240" y="870" as="targetPoint" />
          </mxGeometry>
        </mxCell>
        <mxCell id="WDDI3389Du1jGe91_yvF-11" value="" style="rounded=0;whiteSpace=wrap;html=1;" vertex="1" parent="1">
          <mxGeometry x="1500" y="960" width="180" height="60" as="geometry" />
        </mxCell>
        <mxCell id="WDDI3389Du1jGe91_yvF-12" value="&lt;font style=&quot;font-size: 18px;&quot;&gt;&lt;u&gt;ActividadTuristica&lt;/u&gt;&lt;/font&gt;" style="rounded=0;whiteSpace=wrap;html=1;" vertex="1" parent="1">
          <mxGeometry x="1490" y="970" width="180" height="60" as="geometry" />
        </mxCell>
        <mxCell id="WDDI3389Du1jGe91_yvF-13" value="" style="endArrow=none;html=1;rounded=0;entryX=0.75;entryY=1;entryDx=0;entryDy=0;exitX=0;exitY=0.5;exitDx=0;exitDy=0;" edge="1" parent="1" source="WDDI3389Du1jGe91_yvF-12" target="ClqyVM0LQAfgMowNN57f-19">
          <mxGeometry width="50" height="50" relative="1" as="geometry">
            <mxPoint x="1190" y="920" as="sourcePoint" />
            <mxPoint x="1240" y="870" as="targetPoint" />
            <Array as="points">
              <mxPoint x="1273" y="1000" />
            </Array>
          </mxGeometry>
        </mxCell>
        <mxCell id="WDDI3389Du1jGe91_yvF-14" value="&lt;font style=&quot;font-size: 14px;&quot;&gt;3.1 : act := create(data)&lt;br&gt;&lt;/font&gt;" style="text;html=1;strokeColor=none;fillColor=none;align=center;verticalAlign=middle;whiteSpace=wrap;rounded=0;" vertex="1" parent="1">
          <mxGeometry x="1300" y="830" width="190" height="30" as="geometry" />
        </mxCell>
        <mxCell id="WDDI3389Du1jGe91_yvF-15" value="" style="endArrow=classic;html=1;rounded=0;" edge="1" parent="1">
          <mxGeometry width="50" height="50" relative="1" as="geometry">
            <mxPoint x="1320" y="679.5" as="sourcePoint" />
            <mxPoint x="1410" y="679.5" as="targetPoint" />
          </mxGeometry>
        </mxCell>
        <mxCell id="WDDI3389Du1jGe91_yvF-16" value="" style="endArrow=classic;html=1;rounded=0;" edge="1" parent="1">
          <mxGeometry width="50" height="50" relative="1" as="geometry">
            <mxPoint x="1350" y="860" as="sourcePoint" />
            <mxPoint x="1440" y="860" as="targetPoint" />
          </mxGeometry>
        </mxCell>
        <mxCell id="WDDI3389Du1jGe91_yvF-18" value="&lt;font style=&quot;font-size: 14px;&quot;&gt;4.1: add(act)&lt;br&gt;&lt;/font&gt;" style="text;html=1;strokeColor=none;fillColor=none;align=center;verticalAlign=middle;whiteSpace=wrap;rounded=0;" vertex="1" parent="1">
          <mxGeometry x="1280" y="950" width="190" height="30" as="geometry" />
        </mxCell>
        <mxCell id="WDDI3389Du1jGe91_yvF-19" value="" style="endArrow=classic;html=1;rounded=0;" edge="1" parent="1">
          <mxGeometry width="50" height="50" relative="1" as="geometry">
            <mxPoint x="1330" y="980" as="sourcePoint" />
            <mxPoint x="1420" y="980" as="targetPoint" />
          </mxGeometry>
        </mxCell>
      </root>
    </mxGraphModel>
  </diagram>
</mxfile>
